<mxfile host="app.diagrams.net" agent="Mozilla/5.0 (Windows NT 10.0; Win64; x64) AppleWebKit/537.36 (KHTML, like Gecko) Chrome/141.0.0.0 Safari/537.36" version="28.2.7">
  <diagram name="Page-1" id="GlszYkiSmuEa4JRtwXRP">
    <mxGraphModel dx="2712" dy="1307" grid="1" gridSize="10" guides="1" tooltips="1" connect="1" arrows="1" fold="1" page="1" pageScale="1" pageWidth="850" pageHeight="1100" math="0" shadow="0">
      <root>
        <mxCell id="0" />
        <mxCell id="1" parent="0" />
        <mxCell id="IY7jFy3nxsS5bGj0sxBS-1" value="&lt;p style=&quot;margin:0px;margin-top:4px;text-align:center;&quot;&gt;&lt;i&gt;&amp;lt;&amp;lt;Interface&amp;gt;&amp;gt;&lt;/i&gt;&lt;br&gt;IVehicle&lt;/p&gt;&lt;hr size=&quot;1&quot; style=&quot;border-style:solid;&quot;&gt;&lt;p style=&quot;margin:0px;margin-left:4px;&quot;&gt;&lt;br&gt;&lt;/p&gt;&lt;hr size=&quot;1&quot; style=&quot;border-style:solid;&quot;&gt;&lt;p style=&quot;margin:0px;margin-left:4px;&quot;&gt;+ method: string getBrand()&lt;/p&gt;&lt;p style=&quot;margin:0px;margin-left:4px;&quot;&gt;+ method: string getModel()&lt;br&gt;+ method: Enum getFuelType()&lt;/p&gt;&lt;p style=&quot;margin:0px;margin-left:4px;&quot;&gt;+ method:&amp;nbsp;boolean start()&lt;/p&gt;" style="verticalAlign=top;align=left;overflow=fill;html=1;whiteSpace=wrap;" vertex="1" parent="1">
          <mxGeometry x="630" y="10" width="190" height="140" as="geometry" />
        </mxCell>
        <mxCell id="IY7jFy3nxsS5bGj0sxBS-2" value="&lt;p style=&quot;margin:0px;margin-top:4px;text-align:center;&quot;&gt;&lt;b&gt;BaseVehicle&lt;/b&gt;&lt;/p&gt;&lt;hr size=&quot;1&quot; style=&quot;border-style:solid;&quot;&gt;&lt;p style=&quot;margin:0px;margin-left:4px;&quot;&gt;+ field: String brand&lt;/p&gt;&lt;p style=&quot;margin:0px;margin-left:4px;&quot;&gt;+ field: String model&lt;/p&gt;&lt;p style=&quot;margin:0px;margin-left:4px;&quot;&gt;+ field: Enum&amp;nbsp;fuelType&lt;/p&gt;&lt;hr size=&quot;1&quot; style=&quot;border-style:solid;&quot;&gt;&lt;p style=&quot;margin:0px;margin-left:4px;&quot;&gt;+ method(): String getBrand()&lt;/p&gt;&lt;p style=&quot;margin:0px;margin-left:4px;&quot;&gt;+ method():&amp;nbsp;String getModel()&lt;/p&gt;&lt;p style=&quot;margin:0px;margin-left:4px;&quot;&gt;+ method():&amp;nbsp;Enum getFuelType()&lt;/p&gt;&lt;p style=&quot;margin:0px;margin-left:4px;&quot;&gt;+ method():&amp;nbsp;boolean start()&lt;/p&gt;&lt;p style=&quot;margin:0px;margin-left:4px;&quot;&gt;+ method():&amp;nbsp;boolean move()&lt;/p&gt;" style="verticalAlign=top;align=left;overflow=fill;html=1;whiteSpace=wrap;" vertex="1" parent="1">
          <mxGeometry x="620" y="220" width="210" height="160" as="geometry" />
        </mxCell>
        <mxCell id="IY7jFy3nxsS5bGj0sxBS-4" value="&lt;p style=&quot;margin:0px;margin-top:4px;text-align:center;&quot;&gt;&lt;b&gt;Aircraft&lt;/b&gt;&lt;/p&gt;&lt;hr size=&quot;1&quot; style=&quot;border-style:solid;&quot;&gt;&lt;p style=&quot;margin:0px;margin-left:4px;&quot;&gt;+ field: String brand&lt;/p&gt;&lt;p style=&quot;margin:0px;margin-left:4px;&quot;&gt;+ field: String model&lt;/p&gt;&lt;p style=&quot;margin:0px;margin-left:4px;&quot;&gt;+ field:&amp;nbsp;&lt;b&gt;&lt;u&gt;FuelTypeForAircraft&lt;/u&gt;&lt;/b&gt;&amp;nbsp;fuelType&lt;/p&gt;&lt;hr size=&quot;1&quot; style=&quot;border-style:solid;&quot;&gt;&lt;p style=&quot;margin:0px;margin-left:4px;&quot;&gt;+ method(): String getBrand()&lt;/p&gt;&lt;p style=&quot;margin:0px;margin-left:4px;&quot;&gt;+ method():&amp;nbsp;String getModel()&lt;/p&gt;&lt;p style=&quot;margin:0px;margin-left:4px;&quot;&gt;+ method():&amp;nbsp;Enum getFuelType()&lt;/p&gt;&lt;p style=&quot;margin:0px;margin-left:4px;&quot;&gt;+ method():&amp;nbsp;boolean start()&lt;/p&gt;&lt;p style=&quot;margin:0px;margin-left:4px;&quot;&gt;+ method():&amp;nbsp;boolean move()&lt;/p&gt;" style="verticalAlign=top;align=left;overflow=fill;html=1;whiteSpace=wrap;" vertex="1" parent="1">
          <mxGeometry x="920" y="450" width="210" height="160" as="geometry" />
        </mxCell>
        <mxCell id="IY7jFy3nxsS5bGj0sxBS-5" value="&lt;p style=&quot;margin:0px;margin-top:4px;text-align:center;&quot;&gt;&lt;b&gt;Bicycle&lt;/b&gt;&lt;/p&gt;&lt;hr size=&quot;1&quot; style=&quot;border-style:solid;&quot;&gt;&lt;p style=&quot;margin:0px;margin-left:4px;&quot;&gt;+ field: String brand&lt;/p&gt;&lt;p style=&quot;margin:0px;margin-left:4px;&quot;&gt;+ field: String model&lt;/p&gt;&lt;p style=&quot;margin:0px;margin-left:4px;&quot;&gt;+ field:&amp;nbsp;&lt;b&gt;&lt;u&gt;FuelTypeForBicycle&lt;/u&gt;&lt;/b&gt;&amp;nbsp;fuelType&lt;/p&gt;&lt;hr size=&quot;1&quot; style=&quot;border-style:solid;&quot;&gt;&lt;p style=&quot;margin:0px;margin-left:4px;&quot;&gt;+ method(): String getBrand()&lt;/p&gt;&lt;p style=&quot;margin:0px;margin-left:4px;&quot;&gt;+ method():&amp;nbsp;String getModel()&lt;/p&gt;&lt;p style=&quot;margin:0px;margin-left:4px;&quot;&gt;+ method():&amp;nbsp;Enum getFuelType()&lt;/p&gt;&lt;p style=&quot;margin:0px;margin-left:4px;&quot;&gt;+ method():&amp;nbsp;boolean start()&lt;/p&gt;&lt;p style=&quot;margin:0px;margin-left:4px;&quot;&gt;+ method():&amp;nbsp;boolean move()&lt;/p&gt;" style="verticalAlign=top;align=left;overflow=fill;html=1;whiteSpace=wrap;" vertex="1" parent="1">
          <mxGeometry x="610" y="450" width="210" height="160" as="geometry" />
        </mxCell>
        <mxCell id="IY7jFy3nxsS5bGj0sxBS-6" value="&lt;p style=&quot;margin:0px;margin-top:4px;text-align:center;&quot;&gt;&lt;b&gt;Car&lt;/b&gt;&lt;/p&gt;&lt;hr size=&quot;1&quot; style=&quot;border-style:solid;&quot;&gt;&lt;p style=&quot;margin:0px;margin-left:4px;&quot;&gt;+ field: String brand&lt;/p&gt;&lt;p style=&quot;margin:0px;margin-left:4px;&quot;&gt;+ field: String model&lt;/p&gt;&lt;p style=&quot;margin:0px;margin-left:4px;&quot;&gt;+ field:&amp;nbsp;&lt;b&gt;&lt;u&gt;FuelTypeForCar&lt;/u&gt;&lt;/b&gt;&amp;nbsp;fuelType&lt;/p&gt;&lt;hr size=&quot;1&quot; style=&quot;border-style:solid;&quot;&gt;&lt;p style=&quot;margin:0px;margin-left:4px;&quot;&gt;+ method(): String getBrand()&lt;/p&gt;&lt;p style=&quot;margin:0px;margin-left:4px;&quot;&gt;+ method():&amp;nbsp;String getModel()&lt;/p&gt;&lt;p style=&quot;margin:0px;margin-left:4px;&quot;&gt;+ method():&amp;nbsp;Enum getFuelType()&lt;/p&gt;&lt;p style=&quot;margin:0px;margin-left:4px;&quot;&gt;+ method():&amp;nbsp;boolean start()&lt;/p&gt;&lt;p style=&quot;margin:0px;margin-left:4px;&quot;&gt;+ method():&amp;nbsp;boolean move()&lt;/p&gt;" style="verticalAlign=top;align=left;overflow=fill;html=1;whiteSpace=wrap;" vertex="1" parent="1">
          <mxGeometry x="1380" y="450" width="210" height="160" as="geometry" />
        </mxCell>
        <mxCell id="IY7jFy3nxsS5bGj0sxBS-7" value="&lt;p style=&quot;margin:0px;margin-top:4px;text-align:center;&quot;&gt;&lt;b&gt;Ship&lt;/b&gt;&lt;/p&gt;&lt;hr size=&quot;1&quot; style=&quot;border-style:solid;&quot;&gt;&lt;p style=&quot;margin:0px;margin-left:4px;&quot;&gt;+ field: String brand&lt;/p&gt;&lt;p style=&quot;margin:0px;margin-left:4px;&quot;&gt;+ field: String model&lt;/p&gt;&lt;p style=&quot;margin:0px;margin-left:4px;&quot;&gt;+ field:&amp;nbsp;&lt;b&gt;&lt;u&gt;FuelTypeForShip&lt;/u&gt;&lt;/b&gt;&amp;nbsp;fuelType&lt;/p&gt;&lt;hr size=&quot;1&quot; style=&quot;border-style:solid;&quot;&gt;&lt;p style=&quot;margin:0px;margin-left:4px;&quot;&gt;+ method(): String getBrand()&lt;/p&gt;&lt;p style=&quot;margin:0px;margin-left:4px;&quot;&gt;+ method():&amp;nbsp;String getModel()&lt;/p&gt;&lt;p style=&quot;margin:0px;margin-left:4px;&quot;&gt;+ method():&amp;nbsp;Enum getFuelType()&lt;/p&gt;&lt;p style=&quot;margin:0px;margin-left:4px;&quot;&gt;+ method():&amp;nbsp;boolean start()&lt;/p&gt;&lt;p style=&quot;margin:0px;margin-left:4px;&quot;&gt;+ method():&amp;nbsp;boolean move()&lt;/p&gt;" style="verticalAlign=top;align=left;overflow=fill;html=1;whiteSpace=wrap;" vertex="1" parent="1">
          <mxGeometry x="260" y="450" width="210" height="160" as="geometry" />
        </mxCell>
        <mxCell id="IY7jFy3nxsS5bGj0sxBS-16" value="&lt;p style=&quot;margin: 4px 0px 0px; text-align: center;&quot;&gt;&lt;b style=&quot;text-decoration-line: underline;&quot;&gt;Enumiration:&amp;nbsp;&lt;/b&gt;&lt;span style=&quot;background-color: transparent; text-align: left;&quot;&gt;&lt;b&gt;&lt;u&gt;FuelTypeForAircraft&lt;/u&gt;&lt;/b&gt;&lt;/span&gt;&lt;/p&gt;&lt;hr size=&quot;1&quot; style=&quot;border-style:solid;&quot;&gt;&lt;p style=&quot;margin:0px;margin-left:8px;&quot;&gt;JET_FUEL&lt;br&gt;AVGAS&lt;/p&gt;" style="verticalAlign=top;align=left;overflow=fill;html=1;whiteSpace=wrap;" vertex="1" parent="1">
          <mxGeometry x="710" y="690" width="230" height="70" as="geometry" />
        </mxCell>
        <mxCell id="IY7jFy3nxsS5bGj0sxBS-17" value="&lt;p style=&quot;text-align: left; margin: 4px 0px 0px;&quot;&gt;&lt;b style=&quot;text-decoration-line: underline;&quot;&gt;&lt;span style=&quot;white-space: pre;&quot;&gt;&#x9;&lt;/span&gt;Enumiration:&amp;nbsp;&lt;/b&gt;&lt;span style=&quot;background-color: transparent; text-align: left;&quot;&gt;&lt;b&gt;&lt;u&gt;FuelTypeForBicycle&lt;/u&gt;&lt;/b&gt;&lt;/span&gt;&lt;/p&gt;&lt;hr size=&quot;1&quot; style=&quot;border-style:solid;&quot;&gt;&lt;p style=&quot;margin:0px;margin-left:8px;&quot;&gt;HUMAN_POWER&lt;br&gt;ELECTRIC_BATTERY&lt;/p&gt;" style="verticalAlign=top;align=left;overflow=fill;html=1;whiteSpace=wrap;" vertex="1" parent="1">
          <mxGeometry x="420" y="690" width="230" height="70" as="geometry" />
        </mxCell>
        <mxCell id="IY7jFy3nxsS5bGj0sxBS-18" value="&lt;p style=&quot;text-align: left; margin: 4px 0px 0px;&quot;&gt;&lt;b style=&quot;text-decoration-line: underline;&quot;&gt;&lt;span style=&quot;white-space: pre;&quot;&gt;&#x9;&lt;/span&gt;Enumiration:&amp;nbsp;&lt;/b&gt;&lt;span style=&quot;background-color: transparent;&quot;&gt;&lt;b&gt;&lt;u&gt;FuelTypeForCar&lt;/u&gt;&lt;/b&gt;&lt;/span&gt;&lt;/p&gt;&lt;hr size=&quot;1&quot; style=&quot;border-style:solid;&quot;&gt;&lt;p style=&quot;margin:0px;margin-left:8px;&quot;&gt;PETROL&lt;br&gt;DIESEL&lt;/p&gt;&lt;p style=&quot;margin:0px;margin-left:8px;&quot;&gt;ELECTRIC&lt;/p&gt;&lt;p style=&quot;margin:0px;margin-left:8px;&quot;&gt;HYBRID&lt;/p&gt;&lt;p style=&quot;margin:0px;margin-left:8px;&quot;&gt;LPG&lt;/p&gt;" style="verticalAlign=top;align=left;overflow=fill;html=1;whiteSpace=wrap;" vertex="1" parent="1">
          <mxGeometry x="1420" y="280" width="230" height="100" as="geometry" />
        </mxCell>
        <mxCell id="IY7jFy3nxsS5bGj0sxBS-19" value="&lt;p style=&quot;text-align: left; margin: 4px 0px 0px;&quot;&gt;&lt;b style=&quot;text-decoration-line: underline;&quot;&gt;&lt;span style=&quot;white-space: pre;&quot;&gt;&#x9;&lt;/span&gt;Enumiration:&amp;nbsp;&lt;/b&gt;&lt;span style=&quot;background-color: transparent;&quot;&gt;&lt;b&gt;&lt;u&gt;FuelTypeForShip&lt;/u&gt;&lt;/b&gt;&lt;/span&gt;&lt;/p&gt;&lt;hr size=&quot;1&quot; style=&quot;border-style:solid;&quot;&gt;&lt;p style=&quot;margin:0px;margin-left:8px;&quot;&gt;MARINE_DIESEL&lt;br&gt;HEAVY_FUEL_OIL&lt;/p&gt;" style="verticalAlign=top;align=left;overflow=fill;html=1;whiteSpace=wrap;" vertex="1" parent="1">
          <mxGeometry x="10" y="600" width="230" height="70" as="geometry" />
        </mxCell>
        <mxCell id="IY7jFy3nxsS5bGj0sxBS-21" value="" style="endArrow=block;dashed=1;endFill=0;endSize=12;html=1;rounded=0;exitX=0.5;exitY=0;exitDx=0;exitDy=0;entryX=0.5;entryY=1;entryDx=0;entryDy=0;" edge="1" parent="1" source="IY7jFy3nxsS5bGj0sxBS-2" target="IY7jFy3nxsS5bGj0sxBS-1">
          <mxGeometry width="160" relative="1" as="geometry">
            <mxPoint x="730" y="180" as="sourcePoint" />
            <mxPoint x="890" y="180" as="targetPoint" />
          </mxGeometry>
        </mxCell>
        <mxCell id="IY7jFy3nxsS5bGj0sxBS-28" value="" style="endArrow=diamondThin;endFill=1;endSize=24;html=1;rounded=0;exitX=0.5;exitY=0;exitDx=0;exitDy=0;" edge="1" parent="1" source="IY7jFy3nxsS5bGj0sxBS-16" target="IY7jFy3nxsS5bGj0sxBS-4">
          <mxGeometry width="160" relative="1" as="geometry">
            <mxPoint x="900" y="490" as="sourcePoint" />
            <mxPoint x="1060" y="490" as="targetPoint" />
          </mxGeometry>
        </mxCell>
        <mxCell id="IY7jFy3nxsS5bGj0sxBS-29" value="" style="endArrow=diamondThin;endFill=1;endSize=24;html=1;rounded=0;exitX=0.5;exitY=0;exitDx=0;exitDy=0;entryX=0;entryY=0.5;entryDx=0;entryDy=0;" edge="1" parent="1" source="IY7jFy3nxsS5bGj0sxBS-19" target="IY7jFy3nxsS5bGj0sxBS-7">
          <mxGeometry width="160" relative="1" as="geometry">
            <mxPoint x="250" y="780" as="sourcePoint" />
            <mxPoint x="410" y="780" as="targetPoint" />
          </mxGeometry>
        </mxCell>
        <mxCell id="IY7jFy3nxsS5bGj0sxBS-30" value="" style="endArrow=diamondThin;endFill=1;endSize=24;html=1;rounded=0;exitX=0.5;exitY=0;exitDx=0;exitDy=0;entryX=-0.002;entryY=0.428;entryDx=0;entryDy=0;entryPerimeter=0;" edge="1" parent="1" source="IY7jFy3nxsS5bGj0sxBS-17" target="IY7jFy3nxsS5bGj0sxBS-5">
          <mxGeometry width="160" relative="1" as="geometry">
            <mxPoint x="420" y="790" as="sourcePoint" />
            <mxPoint x="555" y="720" as="targetPoint" />
          </mxGeometry>
        </mxCell>
        <mxCell id="IY7jFy3nxsS5bGj0sxBS-31" value="" style="endArrow=diamondThin;endFill=1;endSize=24;html=1;rounded=0;" edge="1" parent="1" source="IY7jFy3nxsS5bGj0sxBS-18" target="IY7jFy3nxsS5bGj0sxBS-6">
          <mxGeometry width="160" relative="1" as="geometry">
            <mxPoint x="1150" y="922" as="sourcePoint" />
            <mxPoint x="1225" y="750" as="targetPoint" />
          </mxGeometry>
        </mxCell>
        <mxCell id="IY7jFy3nxsS5bGj0sxBS-36" value="&lt;p style=&quot;margin:0px;margin-top:4px;text-align:center;&quot;&gt;&lt;b&gt;Engine&amp;nbsp;&lt;/b&gt;&lt;span style=&quot;background-color: transparent; text-align: left;&quot;&gt;&lt;b&gt;permits ForceEngine&lt;/b&gt;&lt;/span&gt;&lt;/p&gt;&lt;hr size=&quot;1&quot; style=&quot;border-style:solid;&quot;&gt;&lt;p style=&quot;margin:0px;margin-left:4px;&quot;&gt;+ field: Type&lt;/p&gt;&lt;hr size=&quot;1&quot; style=&quot;border-style:solid;&quot;&gt;&lt;p style=&quot;margin:0px;margin-left:4px;&quot;&gt;+ method(): void startEngine&lt;/p&gt;" style="verticalAlign=top;align=left;overflow=fill;html=1;whiteSpace=wrap;" vertex="1" parent="1">
          <mxGeometry x="1190" y="670" width="160" height="90" as="geometry" />
        </mxCell>
        <mxCell id="IY7jFy3nxsS5bGj0sxBS-37" value="&lt;p style=&quot;margin:0px;margin-top:4px;text-align:center;&quot;&gt;&lt;span style=&quot;background-color: transparent; text-align: left;&quot;&gt;&lt;b&gt;ForceEngine&lt;/b&gt;&lt;/span&gt;&lt;/p&gt;&lt;hr size=&quot;1&quot; style=&quot;border-style:solid;&quot;&gt;&lt;p style=&quot;margin:0px;margin-left:4px;&quot;&gt;+ field: Type&lt;/p&gt;&lt;hr size=&quot;1&quot; style=&quot;border-style:solid;&quot;&gt;&lt;p style=&quot;margin:0px;margin-left:4px;&quot;&gt;+ method(): void startEngine&lt;/p&gt;" style="verticalAlign=top;align=left;overflow=fill;html=1;whiteSpace=wrap;" vertex="1" parent="1">
          <mxGeometry x="1410" y="880" width="160" height="90" as="geometry" />
        </mxCell>
        <mxCell id="IY7jFy3nxsS5bGj0sxBS-38" value="Extends" style="endArrow=block;endSize=16;endFill=0;html=1;rounded=0;exitX=0.5;exitY=0;exitDx=0;exitDy=0;" edge="1" parent="1" source="IY7jFy3nxsS5bGj0sxBS-37" target="IY7jFy3nxsS5bGj0sxBS-36">
          <mxGeometry width="160" relative="1" as="geometry">
            <mxPoint x="900" y="490" as="sourcePoint" />
            <mxPoint x="1060" y="490" as="targetPoint" />
          </mxGeometry>
        </mxCell>
        <mxCell id="IY7jFy3nxsS5bGj0sxBS-39" value="Extends" style="endArrow=block;endSize=16;endFill=0;html=1;rounded=0;exitX=0.5;exitY=0;exitDx=0;exitDy=0;entryX=1;entryY=0.434;entryDx=0;entryDy=0;entryPerimeter=0;" edge="1" parent="1" source="IY7jFy3nxsS5bGj0sxBS-6" target="IY7jFy3nxsS5bGj0sxBS-2">
          <mxGeometry width="160" relative="1" as="geometry">
            <mxPoint x="900" y="490" as="sourcePoint" />
            <mxPoint x="1060" y="490" as="targetPoint" />
          </mxGeometry>
        </mxCell>
        <mxCell id="IY7jFy3nxsS5bGj0sxBS-40" value="Extends" style="endArrow=block;endSize=16;endFill=0;html=1;rounded=0;exitX=0.5;exitY=0;exitDx=0;exitDy=0;entryX=1;entryY=0.75;entryDx=0;entryDy=0;" edge="1" parent="1" source="IY7jFy3nxsS5bGj0sxBS-4" target="IY7jFy3nxsS5bGj0sxBS-2">
          <mxGeometry width="160" relative="1" as="geometry">
            <mxPoint x="1585" y="561" as="sourcePoint" />
            <mxPoint x="930" y="400" as="targetPoint" />
          </mxGeometry>
        </mxCell>
        <mxCell id="IY7jFy3nxsS5bGj0sxBS-41" value="Extends" style="endArrow=block;endSize=16;endFill=0;html=1;rounded=0;exitX=0.5;exitY=0;exitDx=0;exitDy=0;entryX=0.447;entryY=0.983;entryDx=0;entryDy=0;entryPerimeter=0;" edge="1" parent="1" source="IY7jFy3nxsS5bGj0sxBS-5" target="IY7jFy3nxsS5bGj0sxBS-2">
          <mxGeometry width="160" relative="1" as="geometry">
            <mxPoint x="1075" y="520" as="sourcePoint" />
            <mxPoint x="880" y="410" as="targetPoint" />
          </mxGeometry>
        </mxCell>
        <mxCell id="IY7jFy3nxsS5bGj0sxBS-42" value="Extends" style="endArrow=block;endSize=16;endFill=0;html=1;rounded=0;exitX=0.5;exitY=0;exitDx=0;exitDy=0;entryX=-0.016;entryY=0.616;entryDx=0;entryDy=0;entryPerimeter=0;" edge="1" parent="1" source="IY7jFy3nxsS5bGj0sxBS-7" target="IY7jFy3nxsS5bGj0sxBS-2">
          <mxGeometry width="160" relative="1" as="geometry">
            <mxPoint x="815" y="500" as="sourcePoint" />
            <mxPoint x="620" y="390" as="targetPoint" />
          </mxGeometry>
        </mxCell>
        <mxCell id="IY7jFy3nxsS5bGj0sxBS-43" value="" style="endArrow=diamondThin;endFill=0;endSize=24;html=1;rounded=0;entryX=-0.005;entryY=0.399;entryDx=0;entryDy=0;entryPerimeter=0;exitX=0.456;exitY=0.016;exitDx=0;exitDy=0;exitPerimeter=0;" edge="1" parent="1" source="IY7jFy3nxsS5bGj0sxBS-36" target="IY7jFy3nxsS5bGj0sxBS-6">
          <mxGeometry width="160" relative="1" as="geometry">
            <mxPoint x="900" y="490" as="sourcePoint" />
            <mxPoint x="1060" y="490" as="targetPoint" />
          </mxGeometry>
        </mxCell>
      </root>
    </mxGraphModel>
  </diagram>
</mxfile>
